# xmcd
#
# Track frame offsets: 
#        150
#        15570
#        26461
#        36245
#        49265
#        62235
#        74248
#        85999
#        111569
#        123276
#        134709
#        145120
#        154832
#        176170
#        186847
#        197347
#
# Disc length: 2750 seconds
#
# Revision: 0
# Processed by: cddbd v1.5.2PL0 Copyright (c) Steve Scherf et al.
# Submitted via: ExactAudioCopyFreeDBPlugin 1.0
#
DISCID=f10abc10
DTITLE=Various Artist - 30 Years Of Pop - My Guy
DYEAR=2004
DGENRE=Pop
TTITLE0=Mary Wells - My Guy
TTITLE1=Tom Jones - Green Grass Of Home
TTITLE2=Buddy Holly and The Picks - Heartbeat
TTITLE3=The Supremes - Stop In The Name Of Love
TTITLE4=Spencer Davis - Gimme Some Lovin'
TTITLE5=Dave Berry - The Crying Game
TTITLE6=The Four Pennies - Juliet
TTITLE7=Rickie Nelson - Let There Be Drums
TTITLE8=The Applejacks - Tell Me When
TTITLE9=Helen Shapiro - Don't Treat Me Like A Child
TTITLE10=Johnny Preston - Cradle Of Love
TTITLE11=Billy J. Kramer - Do You Want To Know A Secret
TTITLE12=Martha Reeves - Nowhere To Run
TTITLE13=Roger Whittaker - Durham Town
TTITLE14=Freddie and The Dreamers - You Were Made For Me
TTITLE15=Herman`s Hermits - Wonderful World
EXTD=
EXTT0=
EXTT1=
EXTT2=
EXTT3=
EXTT4=
EXTT5=
EXTT6=
EXTT7=
EXTT8=
EXTT9=
EXTT10=
EXTT11=
EXTT12=
EXTT13=
EXTT14=
EXTT15=
PLAYORDER=
